<svg width="52" height="62" viewBox="0 0 52 62" fill="none" xmlns="http://www.w3.org/2000/svg">
<path d="M26.1582 46.7824C24.0004 46.7824 21.8426 46.7542 19.6874 46.7824C18.403 46.8056 17.0878 45.5315 17.1597 44.242C17.1867 43.8366 17.1867 43.4298 17.1597 43.0244C17.1309 42.6078 17.0708 42.1939 16.9799 41.7863C16.8298 41.1388 16.4408 40.5719 15.8907 40.1988C13.7592 38.6984 11.9863 36.7449 10.6992 34.4783C9.99241 33.2423 9.44515 31.9217 9.07058 30.5481C8.92929 30.0498 8.81372 29.5412 8.7084 29.0325C8.37703 27.5298 8.42071 25.9989 8.46438 24.4782C8.50946 23.7864 8.60908 23.0993 8.76233 22.4232C8.95217 21.4413 9.23517 20.4797 9.60748 19.5514C9.86841 18.8423 10.1854 18.1552 10.5553 17.4964C10.948 16.8023 11.3768 16.1293 11.8397 15.4799C12.1762 15.0227 12.5333 14.5758 12.9135 14.1545C13.2937 13.7332 13.7124 13.3222 14.1336 12.9292C15.1588 11.9579 16.3096 11.1286 17.5553 10.4632C18.5044 9.93561 19.5045 9.5053 20.5403 9.17888C21.4375 8.91369 22.3481 8.6959 23.2683 8.52642C24.561 8.29978 25.8763 8.2299 27.1857 8.31833C27.9557 8.37416 28.7207 8.48578 29.4745 8.65228C30.3085 8.83256 31.1325 9.05634 31.9431 9.32272C32.28 9.43395 32.611 9.56255 32.9347 9.70802C34.0608 10.1772 35.126 10.781 36.1071 11.5061C36.7204 11.9512 37.3087 12.4297 37.8693 12.9395C38.5955 13.6274 39.2816 14.3564 39.9243 15.1229C41.2397 16.8384 42.2328 18.7784 42.8553 20.8486C43.1307 21.81 43.3393 22.7893 43.4796 23.7795C43.6234 24.8661 43.5617 25.945 43.572 27.0238C43.5534 27.8613 43.4431 28.6942 43.2432 29.5078C43.0233 30.5265 42.7182 31.5249 42.3312 32.4926C41.851 33.7005 41.2431 34.8535 40.5177 35.9321C39.6876 37.112 38.7286 38.1959 37.6586 39.1636C37.2514 39.5314 36.8225 39.8745 36.3742 40.1911C36.1814 40.3199 35.9724 40.4226 35.7526 40.4968C35.1156 40.7382 34.6198 40.4711 34.1908 40.0216C33.9993 39.823 33.8734 39.5704 33.8302 39.298C33.787 39.0255 33.8286 38.7463 33.9493 38.4983C34.0717 38.181 34.2922 37.911 34.5787 37.7277C34.982 37.4708 35.2902 37.0573 35.6935 36.7927C36.2946 36.3971 36.6517 35.7832 37.1526 35.3028C37.3925 35.0644 37.6061 34.8009 37.7896 34.5168C38.2134 33.9451 38.5962 33.3442 38.9353 32.7187C39.4358 31.729 39.8318 30.6899 40.117 29.6182C40.2557 29.0557 40.3739 28.4828 40.4972 27.9152C40.4984 27.8938 40.4984 27.8723 40.4972 27.8509C40.5676 27.2222 40.6062 26.5904 40.6127 25.9578C40.5795 24.9947 40.4678 24.036 40.2788 23.0911C40.1167 22.2942 39.8908 21.5116 39.6032 20.751C39.1476 19.4873 38.5032 18.3 37.6921 17.2293C37.1691 16.5089 36.5809 15.8382 35.935 15.2256C35.0916 14.4306 34.1467 13.7508 33.1248 13.2041C32.2051 12.7443 31.2983 12.2536 30.2991 11.9942C29.5376 11.784 28.766 11.6125 27.9872 11.4805C27.1806 11.3572 26.3791 11.4188 25.5776 11.3751C24.5049 11.35 23.4346 11.4869 22.4026 11.781C21.3447 12.035 20.3222 12.419 19.3586 12.9241C18.4735 13.3638 17.6455 13.9099 16.8926 14.5501C16.3557 15.033 15.8008 15.5005 15.305 16.0219C14.6506 16.7076 14.0758 17.465 13.5917 18.2799C12.9318 19.3752 12.4139 20.5499 12.0504 21.7759C11.8022 22.6376 11.6303 23.5195 11.5366 24.4114C11.4827 24.9252 11.4365 25.4595 11.4313 25.986C11.46 26.7201 11.5389 27.4514 11.6676 28.1746C11.8996 29.7723 12.422 31.3141 13.2089 32.7238C13.6496 33.5864 14.1986 34.3892 14.8426 35.1127C15.1714 35.4698 15.4592 35.8834 15.8162 36.1993C16.4 36.7506 17.0123 37.2711 17.6504 37.7585C18.9063 38.6715 19.7626 40.0329 20.0419 41.5602C20.1703 42.1998 20.1138 42.8266 20.1498 43.4585C20.1703 43.8053 20.1498 43.8156 20.5043 43.8156H25.6418C28.2106 43.8156 30.7795 43.8156 33.3328 43.8156C33.8376 43.809 34.3386 43.9036 34.8063 44.0937C35.2739 44.2839 35.6987 44.5657 36.0557 44.9227C36.4331 45.2893 36.732 45.7289 36.9343 46.2146C37.1365 46.7004 37.2379 47.2222 37.2322 47.7483C37.2435 48.2646 37.1529 48.7782 36.9656 49.2595C36.7783 49.7408 36.4979 50.1805 36.1405 50.5533C35.5994 51.115 34.8977 51.4954 34.1317 51.6425C33.6124 51.7366 33.0844 51.7737 32.5571 51.753H21.9813C21.6854 51.7352 21.3916 51.8136 21.1439 51.9764C20.9964 52.0836 20.8853 52.2334 20.8256 52.4056C20.7659 52.5779 20.7605 52.7643 20.81 52.9397C20.8431 53.0934 20.9198 53.2343 21.0309 53.3455C21.1421 53.4567 21.283 53.5334 21.4368 53.5665C21.6768 53.6462 21.9289 53.6827 22.1817 53.6744C24.9791 53.6744 27.7791 53.6538 30.5765 53.6744C31.6502 53.6744 32.7034 53.8516 33.6077 54.5452C33.9235 54.7911 34.1962 55.088 34.4143 55.4236C34.9029 56.0844 35.1593 56.8882 35.1438 57.7098C35.1236 58.7076 34.7305 59.6616 34.0418 60.3839C33.4498 60.9813 32.7009 61.399 31.8814 61.5886C31.735 61.6161 31.5858 61.6256 31.437 61.6168H22.7212C22.337 61.636 21.9605 61.504 21.6724 61.249C21.3844 60.9941 21.2076 60.6365 21.1799 60.2529C21.1681 60.0539 21.1961 59.8546 21.2622 59.6666C21.3283 59.4787 21.4312 59.3057 21.5649 59.1579C21.6986 59.0101 21.8603 58.8905 22.0408 58.8059C22.2212 58.7213 22.4167 58.6736 22.6158 58.6654C23.6844 58.6654 24.753 58.6654 25.8216 58.6654C27.4657 58.6654 29.1097 58.6654 30.7563 58.6654C30.9648 58.6607 31.1716 58.6261 31.3702 58.5626C31.4891 58.539 31.602 58.4916 31.7021 58.4235C31.8023 58.3553 31.8877 58.2677 31.9534 58.1658C32.019 58.064 32.0636 57.95 32.0843 57.8306C32.1051 57.7113 32.1016 57.589 32.0741 57.4709C32.0253 57.1421 31.5604 56.7774 31.1339 56.7517C31.0055 56.7517 30.8771 56.7517 30.7486 56.7517C29.5952 56.7517 28.4367 56.7671 27.2885 56.7517C26.2943 56.7337 25.3002 56.6567 24.3061 56.6361C23.312 56.6156 22.2947 56.6695 21.2929 56.6155C20.7087 56.5738 20.1431 56.3923 19.6438 56.0864C19.0208 55.7293 18.5127 55.2017 18.1795 54.5657C17.947 54.1446 17.7954 53.6837 17.7325 53.2068C17.625 52.4152 17.7603 51.6096 18.1203 50.8964C18.4803 50.1832 19.0483 49.5961 19.749 49.2125C20.1497 48.9966 20.5839 48.8498 21.0334 48.7783C21.7045 48.6828 22.3831 48.651 23.0602 48.6833C26.4561 48.6833 29.8547 48.6833 33.2506 48.6833C33.4714 48.6825 33.686 48.6106 33.8628 48.4783C34.0395 48.346 34.169 48.1603 34.2319 47.9487C34.258 47.7272 34.2085 47.5035 34.0915 47.3137C33.9745 47.1239 33.7967 46.9793 33.5871 46.9032C33.3286 46.8173 33.0581 46.7731 32.7857 46.7722C30.5611 46.7773 28.3596 46.7824 26.1582 46.7824Z" fill="#2F2A32"/>
<path d="M7.29297 8.5446C7.30581 7.80224 7.89661 7.14209 8.49 7.17291C8.85105 7.18421 9.19513 7.32878 9.45587 7.57876C10.3883 8.51891 11.3311 9.44879 12.2585 10.4044C12.4782 10.6318 12.6792 10.8767 12.8595 11.1365C13.1626 11.5654 12.9726 12.4619 12.5153 12.7625C12.2688 12.9344 11.9697 13.0144 11.6703 12.9886C11.3708 12.9628 11.0899 12.8328 10.8764 12.6212C9.89 11.5937 8.86248 10.5893 7.85038 9.57981C7.55001 9.30992 7.35296 8.94392 7.29297 8.5446Z" fill="#2F2A32"/>
<path d="M44.7354 8.4491C44.7149 8.83101 44.5517 9.19132 44.2782 9.45862C43.201 10.5529 42.1161 11.6386 41.0236 12.7157C40.4584 13.2706 39.5131 12.9315 39.2254 12.4589C39.0827 12.2099 39.0212 11.9226 39.0498 11.6371C39.0784 11.3515 39.1954 11.082 39.3846 10.8663C40.3325 9.76943 41.4011 8.79588 42.3978 7.75041C42.5981 7.5337 42.8487 7.36962 43.1274 7.27263C43.2904 7.2131 43.4654 7.19368 43.6376 7.21603C43.8097 7.23839 43.9739 7.30187 44.1164 7.40107C44.458 7.63996 44.7714 7.9559 44.7354 8.4491Z" fill="#2F2A32"/>
<path d="M48.3369 27.1617C47.5483 27.1617 46.7597 27.1617 45.9711 27.1617C45.8202 27.1667 45.6698 27.14 45.5298 27.0835C45.3897 27.027 45.2631 26.9418 45.1579 26.8334C45.0527 26.7251 44.9713 26.596 44.9189 26.4543C44.8665 26.3127 44.8443 26.1617 44.8537 26.0109C44.8537 25.1966 45.3212 24.7266 46.1509 24.7266C47.6434 24.7266 49.1358 24.7266 50.6257 24.7266C51.3964 24.7266 51.8793 25.1145 51.9949 25.9647C52.0309 26.2216 51.8254 26.5581 51.6661 26.8175C51.5804 26.9396 51.464 27.0368 51.3287 27.0995C51.1934 27.1622 51.044 27.1881 50.8954 27.1746C50.0426 27.1566 49.1898 27.1617 48.3369 27.1617Z" fill="#2F2A32"/>
<path d="M27.1702 3.61554C27.1702 4.38615 27.1702 5.15677 27.1702 5.92739C27.1892 6.07451 27.1724 6.22404 27.1209 6.36318C27.0695 6.50233 26.985 6.62693 26.8748 6.72626C26.6439 6.93648 26.3562 7.07407 26.0477 7.12185C25.8811 7.1301 25.7145 7.10529 25.5576 7.04886C25.4006 6.99242 25.2564 6.90548 25.1332 6.79305C24.9016 6.58271 24.7576 6.29293 24.7298 5.98132C24.7016 5.53693 24.7298 5.08741 24.7298 4.64046C24.7298 3.55388 24.7453 2.46476 24.7298 1.37819C24.7052 1.05081 24.8084 0.726588 25.0177 0.473675C25.227 0.220763 25.5262 0.0588422 25.8524 0.0218905C26.1324 -0.0346214 26.4998 0.155471 26.7798 0.3173C26.9138 0.404306 27.0218 0.525904 27.0923 0.669246C27.1628 0.812588 27.1933 0.972322 27.1805 1.13157C27.1625 1.95099 27.1676 2.77556 27.1702 3.61554Z" fill="#2F2A32"/>
<path d="M3.58105 27.1606C2.79243 27.1606 2.00382 27.1606 1.2152 27.1606C1.06793 27.1809 0.917916 27.164 0.778834 27.1115C0.639751 27.059 0.515996 26.9726 0.418852 26.86C0.219991 26.5936 0.0798808 26.2881 0.00782063 25.9636C-0.082087 25.4704 0.575538 24.7794 1.11498 24.7177C1.17915 24.7139 1.24348 24.7139 1.30764 24.7177H5.84416C6.0652 24.7046 6.28531 24.7553 6.4784 24.8636C6.67148 24.972 6.8294 25.1336 6.93333 25.3291C7.04863 25.5235 7.10943 25.7453 7.10943 25.9713C7.10943 26.1973 7.04863 26.4191 6.93333 26.6135C6.84285 26.7927 6.70081 26.9409 6.5255 27.0388C6.35018 27.1368 6.14957 27.1801 5.94946 27.1631C5.15571 27.158 4.36966 27.1606 3.58105 27.1606Z" fill="#2F2A32"/>
</svg>
