<svg width="76" height="54" viewBox="0 0 76 54" fill="none" xmlns="http://www.w3.org/2000/svg">
<path d="M37.9554 53.361C28.5883 53.361 19.2222 53.361 9.85709 53.361C8.64011 53.3282 7.45595 52.9592 6.43575 52.295C5.45139 51.7557 4.59373 51.0122 3.92017 50.1144C3.24661 49.2167 2.77275 48.1853 2.53035 47.0895C2.5155 47.0182 2.4977 46.9469 2.47691 46.8786C2.45442 46.621 2.38285 46.37 2.26606 46.1392C2.13241 45.964 1.82053 45.9433 1.63046 45.7978C0.683054 45.0762 -0.0356589 44.2269 0.00294995 42.9322C0.0207694 42.27 -0.0296901 41.5959 0.329669 41.0109C0.986019 39.9449 1.84132 39.1491 3.19263 39.1402C3.4718 39.1402 3.54607 39.057 3.58171 38.769C3.79408 36.7417 4.51534 34.801 5.67848 33.127C5.74085 33.029 5.75867 32.9814 5.67848 32.8834C5.05188 32.0793 4.49543 31.223 4.0153 30.3237C3.4629 29.3201 2.92833 28.3075 2.46799 27.2622C2.3343 26.8949 2.3343 26.4922 2.46799 26.1249C2.80044 25.2645 3.20377 24.4331 3.67379 23.6394C4.26777 22.5823 4.91522 21.5608 5.60721 20.5601C6.24684 19.6106 6.95662 18.7103 7.73066 17.8668C8.4078 17.1541 9.0315 16.382 9.75319 15.7258C10.7036 14.8349 11.7015 14.0213 12.7231 13.2344C14.5175 11.8965 16.45 10.7546 18.4877 9.82837C20.2758 8.97875 22.151 8.32559 24.08 7.88037C24.481 7.79129 24.87 7.65174 25.268 7.60126C25.565 7.56266 25.6897 7.45278 25.8204 7.14989C26.3001 5.94984 27.0059 4.85306 27.8993 3.91909C28.0745 3.74686 28.2527 3.57462 28.422 3.39348C30.0079 1.70681 32.0097 0.765486 34.2104 0.201284C34.7572 0.0803227 35.3165 0.0244866 35.8765 0.0349751C37.8782 0.0171582 39.8799 0.0349969 41.8817 0.0201495C42.4223 0.00940565 42.9565 0.138859 43.4322 0.395939C43.908 0.653019 44.3089 1.02894 44.5961 1.48706C45.4871 2.74612 45.502 4.37046 44.4952 5.85817C43.8567 6.7995 43.2063 7.73786 42.5648 8.67918C42.3509 8.97613 42.3479 9.0058 42.6776 9.13052C43.7918 9.54941 44.8756 10.0455 45.9208 10.6153C47.0672 11.2507 48.1947 11.9189 49.3035 12.6197C50.7409 13.5263 52.1615 14.4558 53.5653 15.408C54.6493 16.1474 55.6977 16.9343 56.7491 17.7183C57.45 18.2409 58.133 18.7903 58.828 19.3366C58.9884 19.4643 59.0478 19.3367 59.125 19.2506C59.4932 18.7101 59.8318 18.1459 60.2268 17.6262C61.0913 16.5282 62.0678 15.5231 63.1403 14.627C64.3825 13.6059 65.7534 12.7523 67.218 12.0882C68.2691 11.6014 69.3706 11.2319 70.5027 10.9864C70.9171 10.8603 71.3589 10.8541 71.7768 10.9686C72.9053 11.3042 73.5587 12.0733 73.5587 13.2255C73.5587 15.6456 73.532 18.0657 73.5587 20.4858C73.5854 22.2438 72.9261 23.7523 71.9995 25.1747C71.6806 25.5838 71.3192 25.9581 70.9215 26.2912C70.4582 26.7544 70.5027 26.6772 70.9423 27.1405C71.3633 27.5506 71.7534 27.9913 72.1094 28.4589C72.782 29.3839 73.234 30.4504 73.431 31.5769C73.4975 31.9337 73.5362 32.295 73.5468 32.6578C73.5468 34.683 73.5468 36.7082 73.5468 38.7334C73.5468 39.0867 73.4993 39.4579 74.025 39.4579C74.9516 40.028 75.6882 40.7793 75.899 41.8661C76.2406 43.6478 75.5634 45.0643 74.0042 45.9522C73.8722 46.0187 73.7588 46.1171 73.6743 46.2384C73.5898 46.3597 73.5368 46.5002 73.5201 46.647C73.2551 47.9563 72.6955 49.1881 71.8837 50.249C70.6953 51.7687 69.0155 52.8279 67.1318 53.2452C66.7291 53.3406 66.3161 53.3865 65.9023 53.3818L37.9554 53.361ZM71.1798 16.9195C71.1798 15.9069 71.1798 14.8943 71.1798 13.8817C71.1798 13.5254 71.061 13.4125 70.7462 13.5105C69.2101 13.9485 67.7397 14.5907 66.3745 15.4199C65.638 15.895 64.9786 16.477 64.2956 17.0086C63.6637 17.5468 63.0912 18.1511 62.5879 18.8111C61.8083 19.7433 61.1524 20.7723 60.6366 21.8726C60.1733 22.8317 59.1814 22.998 58.4062 22.2735C58.2815 22.1547 58.1716 22.0181 58.035 21.9112C56.9777 21.0916 55.9184 20.277 54.8572 19.4673C52.8673 17.9499 50.8181 16.5216 48.6916 15.2031C46.9955 14.1154 45.2395 13.124 43.4319 12.2337C42.2329 11.6624 40.9918 11.1838 39.7196 10.8023C38.0552 10.3202 36.3619 9.94432 34.6499 9.67693C33.8499 9.57583 33.0447 9.52227 32.2384 9.51656C31.7454 9.49578 31.2494 9.51656 30.7534 9.51656C30.3584 9.51656 29.9278 9.41856 29.5655 9.54328C28.9002 9.77193 28.2171 9.59081 27.5459 9.7868C26.8747 9.98278 26.0609 9.95307 25.3274 10.1342C23.4268 10.5857 21.5732 11.2161 19.7914 12.0169C18.3465 12.6643 16.9561 13.427 15.6336 14.2974C14.3211 15.1416 13.0937 16.1112 11.9687 17.1927C11.8113 17.3501 11.6479 17.4896 11.4816 17.65C11.1395 17.9295 10.8124 18.2268 10.5016 18.5408C9.97891 19.1199 9.47994 19.7286 8.99585 20.3225C8.29267 21.1608 7.63342 22.035 7.02081 22.9416C6.34664 24.0077 5.80615 25.1569 5.19435 26.2585C5.10983 26.3917 5.06499 26.5462 5.06499 26.704C5.06499 26.8617 5.10983 27.0162 5.19435 27.1494C5.41115 27.5295 5.57747 27.9392 5.78833 28.3193C6.23382 29.1003 6.69715 29.8694 7.15452 30.6385C7.27628 30.8375 7.43068 30.9087 7.63561 30.7306C7.91181 30.49 8.18209 30.2406 8.47611 30.0268C9.51016 29.2188 10.6594 28.5702 11.8856 28.1026C13.1894 27.6542 14.5169 27.2771 15.9187 27.2889C16.3375 27.2889 16.7562 27.2889 17.178 27.2889C18.3167 27.3017 19.4467 27.49 20.528 27.8472C22.1638 28.3282 23.6812 29.1454 24.9829 30.2465C25.1373 30.3742 25.3215 30.3327 25.3482 30.1456C25.4882 29.3843 25.5873 28.6161 25.6452 27.8442C25.7207 26.4285 25.634 25.0088 25.3868 23.6127C25.1384 22.2375 24.7328 20.8954 24.178 19.6128C23.4624 17.9552 22.4736 16.4294 21.2527 15.0992C21.0707 14.9359 20.931 14.7309 20.8456 14.5018C20.7603 14.2727 20.7318 14.0263 20.7626 13.7837C20.7927 13.5763 20.872 13.3791 20.994 13.2086C21.1159 13.0381 21.2769 12.8993 21.4635 12.8038C21.9565 12.5484 22.7822 12.8275 23.1178 13.2937C23.1744 13.3975 23.2389 13.4968 23.3108 13.5907C23.9438 14.2974 24.5132 15.0586 25.0126 15.8653C25.9777 17.3508 26.7398 18.9587 27.2786 20.6462C27.5822 21.5618 27.7912 22.5061 27.9023 23.4642C27.9943 24.2304 28.1992 24.9876 28.1814 25.7656C28.1547 26.793 28.2468 27.8175 28.0597 28.8479C27.9498 29.4626 27.9112 30.0921 27.7627 30.7009C27.6142 31.3096 27.4657 31.8649 27.3261 32.4499C27.3261 32.4855 27.3558 32.536 27.3706 32.5776C27.4144 32.559 27.4547 32.5328 27.4895 32.5004C28.3038 31.3138 29.3492 30.3038 30.5633 29.5309C31.763 28.6614 33.1288 28.0479 34.5756 27.7284C34.9974 27.6393 35.0242 27.5057 34.7687 27.1108C34.7034 27.0068 34.6529 26.897 34.5846 26.796C33.0006 24.4204 31.4167 22.0448 29.8327 19.6692C29.6987 19.4706 29.6218 19.2391 29.6103 18.9999C29.5987 18.7606 29.6531 18.5227 29.7674 18.3122C29.8756 18.0738 30.0623 17.8798 30.2963 17.7625C30.5304 17.6452 30.7976 17.6118 31.0534 17.6678C31.2465 17.7051 31.4301 17.7808 31.5934 17.8905C31.7567 18.0002 31.8962 18.1416 32.0037 18.3062C32.6244 19.1971 33.2243 20.1147 33.8243 21.0263C35.133 23.006 36.4368 24.9935 37.7357 26.989C37.7866 27.0958 37.8693 27.1843 37.9724 27.2423C38.0756 27.3002 38.1941 27.3248 38.3118 27.3127C38.8052 27.2422 39.3067 27.2523 39.7968 27.3424C40.5155 27.5503 41.2818 27.5354 41.9678 27.8739C42.0237 27.9016 42.0846 27.9177 42.1469 27.9212C42.2092 27.9246 42.2715 27.9153 42.3301 27.894C42.3887 27.8726 42.4424 27.8395 42.4878 27.7968C42.5333 27.754 42.5695 27.7025 42.5944 27.6453C42.8041 27.2624 43.0414 26.8951 43.3043 26.5466C43.3599 26.4914 43.4041 26.4257 43.4343 26.3533C43.4644 26.2809 43.4799 26.2033 43.4799 26.1249C43.4799 26.0465 43.4644 25.9689 43.4343 25.8965C43.4041 25.8241 43.3599 25.7585 43.3043 25.7032C42.4549 24.462 41.6381 23.2 40.8095 21.9468C40.3759 21.2846 40.3848 21.2906 39.9185 21.9676C39.5921 22.5105 39.2143 23.0206 38.79 23.491C38.3831 23.9037 37.899 23.8176 37.4862 23.6929C37.3306 23.6261 37.1915 23.5262 37.0786 23.4C36.9657 23.2738 36.8819 23.1244 36.8328 22.9624C36.7675 22.7253 36.7584 22.4761 36.8063 22.2348C36.8543 21.9936 36.9579 21.7668 37.109 21.5727C37.6347 20.8778 38.0683 20.1176 38.5732 19.405C38.6766 19.2995 38.7345 19.1577 38.7345 19.01C38.7345 18.8623 38.6766 18.7205 38.5732 18.6151C38.3524 18.3301 38.1481 18.0326 37.9614 17.7242C37.5694 17.1125 37.1921 16.4889 36.7971 15.8802C36.7252 15.7796 36.677 15.6641 36.6559 15.5422C36.6348 15.4204 36.6415 15.2953 36.6754 15.1764C36.8209 14.7042 37.0764 14.2855 37.5961 14.143C37.8685 14.0664 38.1586 14.0832 38.4203 14.1909C38.6819 14.2986 38.8999 14.4908 39.0394 14.7369C39.4344 15.3308 39.8354 15.901 40.2274 16.4889C40.3492 16.673 40.4086 16.673 40.5244 16.4889C40.8214 16.0376 41.1184 15.5981 41.4154 15.1556C41.8074 14.5944 42.235 14.1074 43.034 14.2648C43.3309 14.3212 43.9041 14.7636 43.9249 15.0457C43.9576 15.506 43.9903 15.9604 43.6844 16.385C43.1617 17.1125 42.6954 17.8697 42.1727 18.6121C42.0716 18.7181 42.0151 18.859 42.0151 19.0055C42.0151 19.1521 42.0716 19.293 42.1727 19.399C42.437 19.7465 42.6627 20.1236 42.9063 20.4858C43.5953 21.5133 44.2932 22.5348 44.9703 23.5711C45.1188 23.8028 45.1515 23.7849 45.2941 23.5711C45.8643 22.6803 46.4672 21.8429 47.0493 20.9758C47.6314 20.1087 48.2373 19.1496 48.8461 18.2439C49.1965 17.7183 49.9806 17.4837 50.4647 17.7658C51.1388 18.1578 51.418 18.9536 51.0587 19.4911C50.9488 19.6514 50.8656 19.8296 50.7617 19.99C49.5341 21.8251 48.3056 23.6593 47.076 25.4924C46.8295 25.8606 46.5415 26.2348 47.0226 26.6386C47.5245 27.6661 46.987 28.5183 45.8346 28.5064C45.6643 28.5199 45.4929 28.5008 45.3298 28.45C45.1694 28.3758 45.107 28.45 45.0328 28.5391C44.9602 28.6657 44.8799 28.7877 44.7922 28.9044C44.6526 29.0528 44.7684 29.1241 44.8635 29.2013C45.2644 29.4745 45.6832 29.721 46.0663 30.0149C46.5178 30.35 46.9436 30.7182 47.3403 31.1166C47.7591 31.5561 48.1066 32.0609 48.4897 32.5331C48.5996 32.6697 48.7422 32.7142 48.858 32.5538C49.4158 31.7852 50.0651 31.0872 50.7914 30.4752C51.1805 30.1456 51.5784 29.8249 51.9972 29.5339C52.6985 29.0578 53.4457 28.6529 54.2276 28.3253C55.6032 27.721 57.0801 27.3805 58.5815 27.3216C59.024 27.3216 59.4724 27.3216 59.915 27.3216C61.0542 27.3339 62.185 27.5201 63.268 27.8739C64.1603 28.1745 65.0249 28.552 65.8518 29.0023C66.9715 29.5339 67.8624 30.3802 68.7564 31.1968C69.2966 31.7557 69.7792 32.3675 70.1968 33.023C70.5087 33.4566 70.77 33.9139 71.0581 34.3771C71.0907 34.4306 71.1294 34.481 71.165 34.5315C71.1799 34.4899 71.2155 34.4425 71.2125 34.4009C71.1561 33.5991 71.2125 32.7676 71.0165 32.0015C70.8252 31.1409 70.4412 30.3349 69.8933 29.6441C69.3454 28.9533 68.648 28.3958 67.8535 28.0135C67.5759 27.8551 67.3245 27.6548 67.1081 27.4196C66.8705 27.1939 66.8111 26.3476 67.0249 26.116C67.2296 25.8757 67.4762 25.6745 67.7526 25.5221C68.5214 25.1372 69.2066 24.6044 69.7691 23.9542C70.428 23.2013 70.8704 22.2839 71.0491 21.2995C71.1647 20.5031 71.2193 19.6989 71.2125 18.8942C71.2006 18.2053 71.1798 17.5698 71.1798 16.9195ZM37.9644 46.2491C27.2925 46.2491 16.6226 46.2491 5.95466 46.2491C5.62203 46.2491 5.28937 46.2966 4.95674 46.3204C5.06366 46.6411 5.15278 46.9678 5.28346 47.2795C5.72149 48.2931 6.42541 49.1693 7.32078 49.8155C8.48795 50.6885 9.83931 50.9647 11.2292 50.9647C29.0625 50.9845 46.8958 50.9845 64.7292 50.9647C65.314 50.9884 65.8994 50.9335 66.4696 50.8014C68.5485 50.2075 70.0987 48.9781 70.8026 46.8489C70.862 46.6648 70.9304 46.4837 70.9927 46.3026C70.8027 46.2818 70.6126 46.2551 70.4196 46.2402C70.3215 46.2402 70.2235 46.2402 70.1226 46.2402L37.9644 46.2491ZM37.9644 43.8735H71.4708C71.6438 43.8869 71.8176 43.8869 71.9906 43.8735C72.3026 43.85 72.6096 43.782 72.9024 43.6716C73.3924 43.4341 73.4547 42.9678 73.4013 42.4838C73.3847 42.3029 73.3158 42.1307 73.2029 41.9884C73.09 41.846 72.9381 41.7395 72.7658 41.682C72.3886 41.5943 72.0035 41.5446 71.6164 41.5336C49.1797 41.5336 26.743 41.5336 4.30635 41.5336C4.13456 41.5157 3.96138 41.5157 3.78959 41.5336C2.66993 41.7741 2.45906 41.982 2.5244 42.9322C2.54088 43.1252 2.61823 43.308 2.74526 43.4542C2.87229 43.6004 3.04247 43.7025 3.23128 43.7458C3.63193 43.8485 4.04424 43.8984 4.45782 43.8943C15.6346 43.8745 26.8064 43.8656 37.9733 43.8676L37.9644 43.8735ZM25.957 39.1223C26.2302 39.1223 26.5005 39.1223 26.7737 39.1223C27.1152 39.1223 27.2073 38.9976 27.1242 38.668C26.9816 38.1098 26.8628 37.5396 26.6668 36.9992C26.1712 35.4665 25.3087 34.0782 24.1543 32.9547C23.8989 32.7202 23.6702 32.4618 23.4177 32.2272C22.7311 31.6054 21.9489 31.0981 21.1012 30.7247C20.2598 30.3061 19.3578 30.0225 18.4283 29.8843L16.5572 29.6675C16.2602 29.8902 15.9365 29.7863 15.6247 29.7893C14.7296 29.8238 13.8477 30.0168 13.0201 30.3594C12.3668 30.6152 11.7359 30.9251 11.1342 31.2859C10.6678 31.5467 10.2324 31.8595 9.83636 32.2183C8.84228 33.092 7.99492 34.1197 7.32672 35.262C6.76148 36.3804 6.34993 37.5701 6.10316 38.7987C6.05861 38.9768 6.10313 39.1342 6.36745 39.1253C6.80996 39.1253 7.25842 39.1253 7.70093 39.1253C7.92368 39.1253 8.2029 39.1936 8.34843 39.0837C8.49395 38.9739 8.43158 38.6858 8.488 38.4898C8.74947 37.3093 9.25531 36.1966 9.97296 35.2234C10.6323 34.3979 11.3688 33.6407 12.5181 33.5011C12.6841 33.4699 12.8324 33.3777 12.934 33.2428C13.5695 32.3311 14.5436 32.1084 15.5326 32.055C16.5103 31.9556 17.4971 31.9946 18.4639 32.1708C19.2272 32.3401 19.9132 32.6162 20.3914 33.2487C20.4384 33.3293 20.5033 33.3979 20.581 33.4494C20.6588 33.5009 20.7473 33.5338 20.8398 33.5457C21.6195 33.6492 22.3329 34.0386 22.8415 34.6384C23.5066 35.4164 24.0504 36.2904 24.4542 37.2308C24.5877 37.5909 24.6872 37.9627 24.7512 38.3414C24.8077 38.5967 24.7215 38.9709 24.867 39.0986C25.0126 39.2263 25.3809 39.1491 25.6482 39.158L25.957 39.1223ZM37.9703 31.954C38.6237 32.0223 39.283 32.052 39.9274 32.1738C40.5602 32.2642 41.1434 32.5668 41.5817 33.0319C41.8995 33.3972 42.149 33.5961 42.5707 33.6258C43.0875 33.6555 43.423 33.9822 43.7883 34.2375C44.0176 34.4517 44.2173 34.6953 44.3823 34.9621C45.3059 36.1202 46.0247 37.3674 46.1108 38.8907C46.1108 39.0333 46.1643 39.1253 46.3217 39.1253H48.2462C48.457 39.1253 48.4986 38.9857 48.4719 38.8284C48.4131 38.4729 48.3347 38.121 48.2372 37.7742C47.9503 36.7774 47.5518 35.8161 47.0493 34.9087C46.3609 33.7709 45.4749 32.7653 44.4328 31.9392C43.6476 31.2918 42.7536 30.7891 41.7925 30.4544C41.0488 30.1762 40.2828 29.9616 39.5028 29.813C39.1642 29.7566 38.8078 29.8308 38.4663 29.7893C38.1439 29.7343 37.8145 29.7343 37.4921 29.7893C37.1595 29.8605 36.7912 29.7566 36.4586 29.8249C35.2675 30.0311 34.1167 30.425 33.0491 30.9919C31.6533 31.7847 30.4089 32.7439 29.509 34.095C29.3071 34.392 29.1111 34.7037 28.9151 35.0066C28.8611 35.0837 28.8297 35.1742 28.8244 35.2682C28.8192 35.3621 28.8403 35.4556 28.8853 35.5382C29.0962 36.0697 29.2061 36.6458 29.3753 37.1981C29.5628 37.7483 29.663 38.3244 29.6723 38.9056C29.6854 38.971 29.7105 39.0335 29.7466 39.0897C29.7741 39.0246 29.795 38.957 29.809 38.8878C29.8059 38.7648 29.8118 38.6417 29.8268 38.5196C30.1005 37.3142 30.6214 36.1787 31.3563 35.1848C31.9503 34.4365 32.6363 33.7357 33.6283 33.5397C33.9359 33.4954 34.2162 33.3388 34.4153 33.1002C34.718 32.723 35.1265 32.4448 35.5884 32.3014C36.3672 32.0841 37.1708 31.9683 37.9792 31.957L37.9703 31.954ZM68.6227 39.1223C68.7475 39.1223 68.8692 39.1223 68.994 39.1223C69.2583 39.1045 69.5879 39.1728 69.7691 39.0362C70.0067 38.8462 69.7156 38.5493 69.6919 38.2939C69.6934 38.2691 69.6934 38.2444 69.6919 38.2196C69.5206 37.2684 69.202 36.3497 68.7475 35.4966C68.1798 34.4114 67.427 33.4336 66.523 32.6073C65.6425 31.77 64.6184 31.098 63.4997 30.6237C61.2544 29.6883 60.6931 29.7804 58.8042 29.7922C58.4836 29.7648 58.161 29.7718 57.842 29.813C56.6896 30.0713 55.5462 30.3475 54.4949 30.9414C53.0515 31.758 51.7566 32.7231 50.8537 34.1306C50.6577 34.4276 50.4617 34.7453 50.2598 35.0393C50.141 35.2026 50.1825 35.3363 50.239 35.4996C50.5953 36.625 51.0231 37.7386 51.029 38.9442C51.0389 38.9901 51.0581 39.0336 51.0854 39.0719C51.119 39.0183 51.145 38.9603 51.1626 38.8996C51.1665 38.7535 51.1794 38.6077 51.2012 38.4631C51.4588 37.2813 51.965 36.1678 52.6862 35.1967C53.3455 34.3741 54.085 33.6139 55.2373 33.4892C55.3808 33.4664 55.5097 33.3887 55.5967 33.2725C56.2352 32.3282 57.2361 32.0847 58.2518 32.0371C59.2285 31.9358 60.2148 31.9758 61.1801 32.1559C61.9434 32.3282 62.6324 32.5984 63.1017 33.2428C63.1514 33.3198 63.2183 33.3843 63.2971 33.4312C63.376 33.4781 63.4646 33.5061 63.5561 33.513C64.0862 33.5712 64.5893 33.777 65.0083 34.1069C65.2875 34.3825 65.5438 34.6805 65.7746 34.9977C66.6804 36.135 67.3753 37.3733 67.4674 38.858C67.4674 39.0392 67.5447 39.1253 67.7318 39.1223C68.0377 39.1223 68.3347 39.1253 68.6317 39.1253L68.6227 39.1223ZM42.8914 3.53007C42.8165 3.33263 42.723 3.14275 42.6122 2.96292C42.4556 2.75776 42.2495 2.59566 42.0132 2.4918C41.7769 2.38793 41.518 2.3457 41.2609 2.36902C39.3453 2.36902 37.4268 2.3096 35.5172 2.52341C35.135 2.56796 34.7574 2.64546 34.3886 2.75504C33.5027 3.00259 32.6537 3.36709 31.8642 3.83891C30.7332 4.57107 29.7457 5.50401 28.9507 6.59163C28.8966 6.69333 28.8576 6.80235 28.8349 6.91529C28.9537 6.91529 29.0724 6.9539 29.1942 6.95984C30.7623 7.0222 32.3334 6.85589 33.9044 7.08454C34.6677 7.19441 35.4399 7.2627 36.2061 7.38148C37.2794 7.53266 38.3377 7.77609 39.3691 8.10903C39.509 8.16981 39.6672 8.17267 39.8092 8.11701C39.9511 8.06134 40.0652 7.9517 40.1265 7.81208C40.8531 6.75692 41.5777 5.69683 42.3004 4.63177C42.4637 4.39124 42.5974 4.13883 42.7489 3.88346C42.8073 3.77025 42.8579 3.65316 42.9003 3.53304L42.8914 3.53007ZM34.0382 39.1223C34.4064 39.1223 34.7747 39.1223 35.143 39.1223C35.3333 39.108 35.5226 39.0832 35.7102 39.0481L35.4459 38.5552C35.042 37.8366 34.644 37.1209 34.2371 36.4053C34.0827 36.1351 33.9401 36.1083 33.7233 36.3311C33.0699 36.9862 32.5954 37.798 32.3452 38.6888C32.2413 38.9858 32.3602 39.1194 32.7076 39.1253C33.1591 39.1312 33.6015 39.1253 34.047 39.1253L34.0382 39.1223ZM12.6904 39.1223C13.1804 39.1223 13.6734 39.1223 14.1754 39.1223C14.3892 39.1223 14.4337 39.0184 14.3268 38.8432C14.0506 38.3889 13.7804 37.9316 13.5012 37.4802C13.2606 37.0912 13.0022 36.7111 12.7706 36.3132C12.6845 36.1677 12.5954 36.141 12.4885 36.239C11.7567 36.919 11.2404 37.7986 11.0035 38.769C10.9322 39.0184 11.0332 39.1194 11.3005 39.1253C11.7638 39.1312 12.2301 39.1253 12.6993 39.1253L12.6904 39.1223ZM55.3977 39.1223C55.8907 39.1223 56.3808 39.1223 56.8827 39.1223C57.0935 39.1223 57.1321 39.0214 57.0223 38.8254C56.7461 38.3711 56.4788 37.9138 56.1996 37.4624C55.9828 37.115 55.76 36.7705 55.5284 36.429C55.2967 36.0875 55.2997 36.1113 55.0205 36.3815C54.47 36.9323 54.0622 37.6091 53.8326 38.3532C53.7734 38.5097 53.7267 38.6705 53.693 38.8343C53.6663 39.0006 53.7287 39.1164 53.9306 39.1164C54.4236 39.1224 54.9166 39.1253 55.4066 39.1253L55.3977 39.1223ZM16.6166 37.6376C16.6582 37.6138 16.7147 37.602 16.7355 37.5693C17.2582 36.6686 17.7789 35.7668 18.2976 34.8641C18.3154 34.8285 18.2976 34.7216 18.256 34.7127C18.0767 34.6423 17.8906 34.5905 17.7007 34.5582C17.3443 34.5137 16.973 34.481 16.6226 34.4632C16.2637 34.4757 15.9059 34.5074 15.5505 34.5582C15.4334 34.584 15.319 34.6208 15.2089 34.6681C14.9772 34.7275 14.9624 34.8314 15.0782 35.0393C15.4792 35.7579 15.8593 36.4914 16.2513 37.216C16.3235 37.3425 16.4049 37.4636 16.4949 37.5782C16.5275 37.599 16.584 37.605 16.6344 37.6257L16.6166 37.6376ZM38.1514 34.4721C37.5782 34.5078 37.1684 34.5285 36.7615 34.5642C36.6724 34.5642 36.5922 34.6622 36.5001 34.6919C36.3546 34.7453 36.3101 34.8255 36.3903 34.968C36.8655 35.8114 37.3437 36.6577 37.8159 37.504C37.9198 37.694 37.997 37.7 38.1129 37.504C38.6088 36.6458 39.1048 35.7846 39.6156 34.9324C39.7403 34.7245 39.6601 34.7127 39.473 34.6859C38.983 34.6087 38.487 34.5137 38.1604 34.4603L38.1514 34.4721ZM61.0465 34.7691C61.0107 34.7426 60.973 34.7187 60.9336 34.6978C60.8028 34.6364 60.6653 34.5906 60.5238 34.5612C60.1169 34.5078 59.6922 34.6236 59.3002 34.4157C58.9378 34.6354 58.534 34.5018 58.1508 34.5553C58.0588 34.5553 57.9815 34.6503 57.8895 34.6741C57.7023 34.7275 57.6519 34.8107 57.7558 34.9888C58.228 35.8114 58.6973 36.6309 59.1517 37.4624C59.2794 37.694 59.3329 37.7148 59.4724 37.4624C59.9654 36.6013 60.4763 35.746 60.9782 34.8908L61.0465 34.7691ZM20.5102 38.9858H21.9952C22.1823 38.9858 22.2921 38.8967 22.2416 38.7244C21.9862 37.9939 21.7308 37.2575 21.1933 36.6725C20.9943 36.4587 20.7656 36.2687 20.5488 36.0786C20.4122 36.3013 20.2696 36.5211 20.136 36.7497C19.7499 37.4179 19.3727 38.0949 18.9747 38.7571C18.8559 38.959 18.9094 38.9976 19.1144 38.9976C19.5836 38.9769 20.0499 38.9798 20.5191 38.9798L20.5102 38.9858ZM41.8668 38.9858C42.3598 38.9858 42.8528 38.9858 43.3518 38.9858C43.5745 38.9858 43.6666 38.8581 43.5864 38.6472C43.233 37.7089 42.838 36.7943 42.0212 36.1469C41.9232 36.0697 41.8936 36.0578 41.8193 36.1885C41.555 36.6488 41.261 37.0794 40.9907 37.5515C40.759 37.9494 40.5601 38.3622 40.3225 38.7571C40.1948 38.9739 40.2868 38.9917 40.471 38.9887L41.8668 38.9858ZM63.1878 38.9858C63.6808 38.9858 64.1738 38.9858 64.6728 38.9858C64.9074 38.9858 65.0143 38.864 64.937 38.671C64.6222 37.8871 64.3669 37.0645 63.7046 36.4736C63.5561 36.3459 63.4076 36.2093 63.271 36.0756C63.1789 36.236 63.0898 36.3934 62.9948 36.5508L61.685 38.7244C61.6078 38.8551 61.5068 38.9887 61.792 38.9858C62.2612 38.9739 62.7304 38.9798 63.1967 38.9798L63.1878 38.9858Z" fill="#2F2A32"/>
<path d="M13.1091 22.5304C13.516 22.5304 13.911 22.5691 14.1189 23.0323C14.2347 23.2751 14.288 23.543 14.274 23.8116C14.26 24.0802 14.1791 24.341 14.0387 24.5705C13.959 24.6618 13.8565 24.7304 13.7417 24.7695C13.5328 24.8676 13.3056 24.9207 13.0749 24.9253C12.8441 24.9299 12.6149 24.8859 12.4023 24.7962C12.2991 24.7598 12.2058 24.6997 12.13 24.6208C12.0542 24.5419 11.998 24.4464 11.9657 24.3419C11.8126 23.9524 11.8073 23.5204 11.9509 23.1273C12.138 22.5809 12.5894 22.5097 13.1091 22.5304Z" fill="#2F2A32"/>
</svg>
