<svg width="57" height="63" viewBox="0 0 57 63" fill="none" xmlns="http://www.w3.org/2000/svg">
<path d="M0.00276453 33.9366C0.00276453 26.0307 0.00276453 18.122 0.00276453 10.2107C-0.0180918 9.42202 0.172696 8.64205 0.555457 7.95113C0.938218 7.26021 1.49916 6.68332 2.18044 6.27989C2.74247 5.90201 3.40491 5.69948 4.08316 5.69821C6.25546 5.72212 8.43047 5.69821 10.6054 5.69821H10.8723C11.5261 5.69821 11.4514 5.76197 11.454 5.14578C11.4754 4.74855 11.4754 4.35047 11.454 3.95325C11.3767 3.19098 11.6755 2.54025 12.0331 1.91344C12.6496 0.851044 13.669 0.319868 14.8165 0.00911786C14.9494 -0.00824762 15.084 -0.00824762 15.2168 0.00911786C20.2526 0.00911786 25.2884 0.00911786 30.3268 0.00911786C31.1388 0.0136388 31.9266 0.284318 32.5685 0.779327C33.439 1.41129 34.027 2.35676 34.2071 3.41407C34.3085 3.85497 34.2284 4.33569 34.2391 4.80049C34.2391 5.08202 34.2711 5.36357 34.2872 5.64511C34.57 5.6637 34.8529 5.69821 35.1358 5.69821C37.2707 5.69821 39.4056 5.69821 41.5272 5.69821C42.4994 5.71447 43.43 6.09366 44.1345 6.76061C44.834 7.36445 45.3172 8.17823 45.5115 9.07928C45.5513 9.29556 45.5657 9.51574 45.5542 9.73533C45.5542 14.2859 45.5542 18.8365 45.5542 23.3871C45.5542 24.0962 45.4555 24.0033 46.2 24.0059C48.5752 24.0059 50.9476 23.99 53.3227 24.0059C53.793 24.0009 54.2597 24.0886 54.6958 24.2641C55.1319 24.4396 55.5287 24.6994 55.8633 25.0285C56.2358 25.3817 56.5296 25.809 56.7254 26.2826C56.9213 26.7562 57.0149 27.2655 57.0001 27.7774C57.0001 31.9101 57.0001 36.0411 57.0001 40.1702C57.0001 41.3628 56.6158 42.4013 55.6658 43.1582C55.1307 43.6161 54.4526 43.8752 53.747 43.8913C51.2847 43.8913 48.8216 43.8913 46.3575 43.8913C46.2027 43.8913 46.0453 43.8913 45.8905 43.8913C45.5729 43.8913 45.5676 43.8913 45.5623 44.2312C45.5623 44.6057 45.5623 44.9829 45.5623 45.3574C45.5623 49.6441 45.5623 53.93 45.5623 58.215C45.5365 58.929 45.328 59.6248 44.9565 60.2362C44.4227 61.2189 43.5527 61.7076 42.6 62.114C42.2562 62.2491 41.8888 62.315 41.5192 62.3078C29.0654 62.3185 16.617 62.3185 4.17392 62.3078C2.6261 62.3078 1.44924 61.5111 0.664653 60.1538C0.227621 59.3983 0.00267174 58.5396 0.0134496 57.6679C0.00811228 49.7548 0.00454364 41.8444 0.00276453 33.9366ZM2.9383 33.9366V57.0649C2.92963 57.435 2.96915 57.8046 3.05577 58.1645C3.10095 58.4335 3.22394 58.6836 3.40974 58.8841C3.59555 59.0846 3.83609 59.2268 4.10186 59.2933C4.33364 59.3531 4.57226 59.3826 4.8117 59.3809H40.8921C41.0015 59.3809 41.1136 59.3809 41.223 59.3809C41.8555 59.3225 42.6641 58.7196 42.6321 57.9228C42.568 56.3133 42.6134 54.6985 42.6134 53.0863V44.3375C42.6134 43.8514 42.6347 43.878 42.1383 43.878C40.5638 43.878 38.9867 43.862 37.4121 43.878C36.7324 43.8732 36.0742 43.6402 35.5441 43.2166C35.0841 42.8775 34.7132 42.4329 34.4627 41.9205C34.2123 41.4082 34.0898 40.8433 34.1056 40.2738V27.9713C34.098 27.5801 34.1384 27.1894 34.2258 26.808C34.3591 26.2111 34.6469 25.6593 35.0608 25.2074C35.4746 24.7554 36 24.4191 36.5848 24.2317C37.0135 24.0806 37.4644 24.0016 37.9192 23.9979C39.2722 24.0139 40.6252 23.9979 41.9782 23.9979C42.1327 24.0099 42.288 24.0099 42.4425 23.9979C42.4801 23.987 42.5145 23.967 42.5424 23.9396C42.5704 23.9123 42.5911 23.8785 42.6027 23.8412C42.6193 23.6647 42.6238 23.4872 42.616 23.3101V10.2532C42.6094 10.1436 42.6094 10.0336 42.616 9.92389C42.6244 9.80288 42.6071 9.68147 42.5652 9.56755C42.5234 9.45362 42.4579 9.34971 42.3732 9.26256C42.2267 9.05757 42.0318 8.89168 41.8055 8.77957C41.5793 8.66746 41.3288 8.61257 41.0762 8.61979C39.0801 8.65432 37.0732 8.61981 35.0851 8.63309C34.8182 8.63309 34.5513 8.657 34.2845 8.67028C34.2605 8.93587 34.2231 9.22801 34.2178 9.50954C34.2552 10.2279 34.1649 10.9472 33.9509 11.6343C33.6681 12.3693 33.1735 13.0048 32.5293 13.4613C31.8851 13.9177 31.1199 14.1747 30.3295 14.2C25.2697 14.2 20.2099 14.2 15.1501 14.2C14.5797 14.21 14.0181 14.059 13.5303 13.7644C12.2173 12.9464 11.3526 11.8229 11.43 10.1709C11.446 9.77517 11.43 9.37409 11.43 8.97835C11.43 8.63573 11.43 8.62511 11.0511 8.62511C8.89657 8.62511 6.74386 8.62511 4.59292 8.62511C4.48084 8.62511 4.37142 8.62511 4.25934 8.62511C3.77364 8.66495 3.13316 9.15631 3.05844 9.58658C2.97606 10.0131 2.93053 10.4458 2.92233 10.88C2.92767 18.5735 2.93296 26.2635 2.9383 33.9499V33.9366ZM45.4768 40.959H53.0078C53.1633 40.9684 53.3193 40.9684 53.4748 40.959C53.5939 40.9403 53.7036 40.8836 53.7874 40.7973C53.8711 40.7111 53.9244 40.6001 53.9392 40.481C53.9458 40.3492 53.9458 40.2171 53.9392 40.0853V27.8226C53.9392 27.6898 53.9392 27.557 53.9392 27.4242C53.9458 27.3363 53.9195 27.2491 53.8653 27.1794C53.8111 27.1097 53.7328 27.0625 53.6456 27.047C53.3533 26.9579 53.0493 26.9131 52.7436 26.9142C47.9507 26.9142 43.1569 26.9142 38.3622 26.9142C38.2288 26.9142 38.0953 26.9142 37.9645 26.9142C37.3481 26.9673 37.0839 27.2356 37.0358 27.8518C37.0358 27.9155 37.0358 27.9846 37.0358 28.051C37.0358 32.0279 37.0358 36.0039 37.0358 39.979C37.0358 40.6935 37.3161 40.959 38.0286 40.959H45.4768ZM22.7078 11.2652C25.1469 11.2652 27.5853 11.2652 30.0226 11.2652C30.1935 11.2772 30.3648 11.2523 30.5252 11.1923C30.6855 11.1323 30.8309 11.0387 30.9515 10.9176C31.072 10.7966 31.165 10.6511 31.2239 10.4911C31.2828 10.331 31.3063 10.1602 31.2929 9.99029C31.2929 9.3741 31.2929 8.75526 31.2929 8.1311C31.2929 6.85446 31.2929 5.57517 31.2929 4.29322C31.3085 4.08616 31.2751 3.87834 31.1954 3.68645C31.1157 3.49456 30.9918 3.32395 30.8339 3.18832C30.5272 2.97839 30.1553 2.88421 29.7851 2.92272H16.2176C15.9961 2.92272 15.7746 2.92272 15.5531 2.92272C15.2438 2.9329 14.9503 3.06098 14.7333 3.28046C14.5162 3.49995 14.3922 3.79404 14.3869 4.10196C14.3869 6.15593 14.3869 8.20813 14.3869 10.2585C14.394 10.4068 14.4401 10.5505 14.5203 10.6755C14.6305 10.8741 14.7958 11.0368 14.9965 11.1442C15.1972 11.2516 15.4247 11.2991 15.6518 11.2811C18.0083 11.2652 20.3594 11.2784 22.7078 11.2784V11.2652Z" fill="#2F2A32"/>
<path d="M9.94091 28.3831C9.00955 28.3831 8.07279 28.3831 7.14944 28.3831C6.96327 28.3845 6.77868 28.3492 6.60632 28.2791C6.43396 28.2091 6.27724 28.1058 6.14523 27.9752C6.01322 27.8445 5.90858 27.6892 5.83725 27.518C5.76593 27.3469 5.72939 27.1633 5.72975 26.9781C5.72975 25.0781 5.72975 23.18 5.72975 21.2836C5.72142 21.0818 5.75527 20.8804 5.82924 20.6923C5.90321 20.5042 6.01567 20.3335 6.15944 20.1909C6.3032 20.0483 6.47517 19.937 6.66444 19.864C6.8537 19.7911 7.05613 19.7581 7.25889 19.7671C9.07625 19.7671 10.8936 19.7671 12.711 19.7671C13.0599 19.7773 13.4016 19.8682 13.709 20.0327C14.2134 20.2717 14.2588 20.7763 14.3842 21.2332C14.3952 21.3213 14.3952 21.4106 14.3842 21.4988C14.3842 23.2694 14.3842 25.0348 14.3842 26.7948C14.3842 27.7775 13.7758 28.3884 12.799 28.3884C11.8223 28.3884 10.8936 28.3831 9.94091 28.3831ZM8.62789 24.0724H8.69193V25.4004C9.14827 25.4243 9.60465 25.4615 10.0583 25.4695C10.512 25.4774 10.939 25.4535 11.3927 25.4455C11.4167 24.9914 11.454 24.5372 11.462 24.0831C11.47 23.6289 11.446 23.2092 11.4353 22.771C10.9817 22.7471 10.5253 22.7099 10.069 22.7019C9.61266 22.694 9.19096 22.7178 8.75063 22.7258L8.62789 24.0724Z" fill="#2F2A32"/>
<path d="M5.72689 46.6384C5.72689 45.7115 5.72689 44.7793 5.72689 43.8576C5.72262 43.6719 5.75567 43.4871 5.82416 43.3142C5.89266 43.1413 5.99523 42.9839 6.12576 42.851C6.25628 42.7181 6.41213 42.6125 6.58424 42.5405C6.75634 42.4684 6.94123 42.4313 7.12794 42.4314C9.03337 42.4314 10.9397 42.4314 12.8469 42.4314C13.0496 42.4217 13.2521 42.454 13.4417 42.5263C13.6312 42.5986 13.8036 42.7093 13.9478 42.8514C14.0921 42.9934 14.2051 43.1638 14.2798 43.3517C14.3544 43.5395 14.389 43.7408 14.3814 43.9426C14.3814 45.7726 14.432 47.6052 14.3653 49.4352C14.328 50.5188 13.9437 50.9943 12.7268 51.0288C10.9121 51.0899 9.09202 51.05 7.27466 51.0447C7.06653 51.0553 6.85853 51.0219 6.66431 50.9467C6.47009 50.8715 6.29407 50.7562 6.14784 50.6084C6.00162 50.4606 5.88852 50.2837 5.81596 50.0893C5.74339 49.8948 5.71305 49.6873 5.72689 49.4804C5.72422 48.5348 5.72689 47.5866 5.72689 46.6384ZM10.0821 48.1284C10.4344 48.1284 10.7893 48.1284 11.1496 48.1284C11.3684 48.1284 11.4699 48.0806 11.4645 47.8363C11.4512 47.1112 11.4645 46.3835 11.4645 45.6584C11.4645 45.4433 11.4138 45.3397 11.1683 45.345C10.4397 45.3583 9.71119 45.345 8.97998 45.345C8.76382 45.345 8.66242 45.3928 8.66509 45.6371C8.68111 46.3622 8.66509 47.09 8.66509 47.8151C8.66509 48.0328 8.71576 48.1391 8.96128 48.1284C9.32955 48.1045 9.70582 48.1284 10.0821 48.1284Z" fill="#2F2A32"/>
<path d="M9.99429 39.6518C9.01756 39.6518 8.03816 39.5987 7.05876 39.6677C6.35957 39.7182 5.70575 38.9267 5.72443 38.3397C5.72443 37.5429 5.72443 36.7461 5.72443 35.9493C5.72443 34.8259 5.72443 33.6997 5.72443 32.5736C5.71448 32.3127 5.77604 32.054 5.90249 31.8252C6.02895 31.5964 6.21552 31.4061 6.44228 31.2748C6.63242 31.1671 6.8521 31.1225 7.06945 31.1473C9.02647 31.1473 10.9772 31.1473 12.9218 31.1473C13.1136 31.1412 13.3046 31.1739 13.4833 31.2436C13.662 31.3132 13.8246 31.4183 13.9611 31.5525C14.0977 31.6867 14.2054 31.8471 14.2776 32.024C14.3499 32.2009 14.3853 32.3906 14.3816 32.5816C14.3976 33.551 14.3816 34.5231 14.3816 35.5032C14.3816 36.3663 14.3816 37.2269 14.3816 38.0874C14.3936 38.3157 14.3535 38.5438 14.2643 38.7544C14.1751 38.9651 14.0391 39.153 13.8665 39.3038C13.628 39.5319 13.3086 39.657 12.9778 39.6518C11.9878 39.6438 10.9897 39.6518 9.99429 39.6518ZM10.0583 36.7302C10.4346 36.7302 10.8109 36.7302 11.1872 36.7302C11.3873 36.7302 11.454 36.6532 11.454 36.4646C11.454 35.7608 11.454 35.0543 11.454 34.3398C11.454 34.1433 11.382 34.0742 11.1872 34.0742C10.4346 34.0742 9.68473 34.0742 8.93217 34.0742C8.73202 34.0742 8.6653 34.1486 8.6653 34.3398C8.6653 35.0481 8.6653 35.7564 8.6653 36.4646C8.6653 36.6612 8.74003 36.7302 8.93217 36.7302C9.30845 36.7222 9.68206 36.7302 10.0583 36.7302Z" fill="#2F2A32"/>
<path d="M24.1862 28.3852C22.3182 28.3852 20.4501 28.3852 18.6007 28.3852C18.3056 28.3946 18.0142 28.3183 17.762 28.1654C17.5099 28.0126 17.3079 27.7899 17.181 27.5246C16.7753 26.8261 17.3011 25.5247 18.3926 25.4609C18.502 25.4609 18.6141 25.4609 18.7235 25.4609H29.7637C30.2387 25.4609 30.6924 25.5194 31.0047 25.9178C31.6105 26.6933 31.5998 27.3467 30.8205 28.109C30.5413 28.3231 30.1882 28.4186 29.8384 28.3746C27.9624 28.3825 26.0783 28.3852 24.1862 28.3852Z" fill="#2F2A32"/>
<path d="M24.2448 39.6526H18.5952C18.2539 39.683 17.9131 39.5883 17.6369 39.3863C17.3607 39.1844 17.1682 38.889 17.0954 38.5557C17.0309 38.2374 17.0711 37.907 17.21 37.6133C17.3489 37.3196 17.5792 37.0782 17.8667 36.9249C18.1675 36.798 18.49 36.7295 18.8167 36.723C22.4265 36.7336 26.0381 36.7336 29.6515 36.723C29.8911 36.7185 30.1297 36.7562 30.356 36.8346C31.2581 37.1586 31.6904 38.0032 31.2794 38.8372C31.1763 39.0811 31.0023 39.2887 30.7797 39.4335C30.5572 39.5784 30.2963 39.6537 30.0304 39.6499C28.101 39.642 26.1742 39.6526 24.2448 39.6526Z" fill="#2F2A32"/>
<path d="M24.2769 48.1287H29.9264C30.2573 48.1045 30.5858 48.2 30.8515 48.3976C31.1173 48.5953 31.3024 48.8817 31.3728 49.2044C31.4584 49.5317 31.4251 49.8786 31.2786 50.1838C31.1321 50.489 30.8819 50.7329 30.5722 50.8723C30.2875 50.9775 29.9872 51.0349 29.6836 51.0423C26.0489 51.0529 22.4141 51.0529 18.7794 51.0423C18.5856 51.027 18.393 50.9986 18.203 50.9573C17.5065 50.8643 17.2236 50.3411 17.0742 49.7701C16.858 48.9255 17.7093 48.1234 18.2884 48.126H24.2716L24.2769 48.1287Z" fill="#2F2A32"/>
<path d="M21.4027 45.3538C20.4287 45.3538 19.4572 45.3538 18.4832 45.3538C18.0969 45.3461 17.7294 45.1869 17.4605 44.9108C17.1916 44.6348 17.0432 44.2642 17.0475 43.8797C17.0558 43.519 17.1959 43.1737 17.4414 42.9082C17.687 42.6428 18.0213 42.4755 18.3818 42.4375C18.4699 42.4375 18.5606 42.4375 18.6487 42.4375H24.2261C24.8746 42.4375 25.5818 42.9687 25.6992 43.5185C25.7779 43.8745 25.7276 44.2468 25.5571 44.5695C25.3867 44.8922 25.1072 45.1446 24.7679 45.2821C24.6032 45.3379 24.4293 45.3622 24.2555 45.3538C23.3055 45.3564 22.3554 45.3538 21.4027 45.3538Z" fill="#2F2A32"/>
<path d="M21.4454 22.6857C20.4713 22.6857 19.4946 22.6592 18.5099 22.6857C18.2436 22.6978 17.9796 22.6331 17.7495 22.4992C17.5194 22.3654 17.3331 22.1682 17.2129 21.9314C16.9301 21.464 17.0208 20.9594 17.3036 20.4627C17.6239 19.9049 18.1363 19.7801 18.6807 19.7642C19.7482 19.7323 20.8156 19.7642 21.8831 19.7642C22.6143 19.7642 23.3482 19.7907 24.0767 19.7642C24.4522 19.7576 24.8198 19.8712 25.1255 20.0882C25.6432 20.4175 25.7686 20.9567 25.6992 21.5224C25.6624 21.7699 25.5634 22.0041 25.4113 22.2033C25.2592 22.4025 25.059 22.5602 24.8293 22.6618C24.6814 22.706 24.5258 22.7178 24.3729 22.6964L21.4454 22.6857Z" fill="#2F2A32"/>
<path d="M21.4827 31.1638C22.4141 31.1638 23.3508 31.2249 24.2742 31.1452C25.3256 31.0575 25.9314 32.2501 25.6485 33.023C25.5587 33.3273 25.373 33.5948 25.1188 33.7861C24.8646 33.9774 24.5554 34.0823 24.2368 34.0854C22.374 34.096 20.5122 34.096 18.6513 34.0854C18.2677 34.0957 17.8936 33.9666 17.5989 33.7221C17.3041 33.4777 17.109 33.1347 17.0501 32.7574C17.0305 32.5672 17.0488 32.3751 17.104 32.1921C17.1592 32.009 17.2501 31.8385 17.3716 31.6905C17.4931 31.5425 17.6427 31.4197 17.8119 31.3294C17.9811 31.239 18.1666 31.1827 18.3577 31.1638C19.4011 31.1531 20.45 31.1638 21.4827 31.1638Z" fill="#2F2A32"/>
<path d="M51.3025 31.1792C51.3066 31.3788 51.2647 31.5766 51.18 31.7575C51.0954 31.9385 50.9702 32.0977 50.8141 32.223C48.9274 34.0822 47.0353 35.9414 45.1752 37.8457C45.0421 37.9899 44.8811 38.1057 44.7018 38.1863C44.5226 38.267 44.3288 38.3107 44.1321 38.3149C43.9355 38.3191 43.74 38.2837 43.5574 38.2109C43.3748 38.138 43.2089 38.0292 43.0697 37.8909C42.0929 36.9932 41.1482 36.0556 40.2462 35.0862C40.0892 34.9322 39.9676 34.7462 39.8898 34.541C39.8119 34.3358 39.7796 34.1163 39.795 33.8975C39.8105 33.6787 39.8734 33.4658 39.9793 33.2735C40.0853 33.0812 40.2319 32.914 40.409 32.7834C41.0975 32.3319 41.7567 32.3903 42.3731 32.9826C42.9069 33.4873 43.4219 33.9999 43.9236 34.5311C44.1158 34.7356 44.2118 34.6798 44.38 34.5125C45.8317 33.057 47.2968 31.6095 48.7486 30.1514C48.8814 30.0075 49.0427 29.8924 49.2222 29.8134C49.4017 29.7343 49.5957 29.6929 49.792 29.6919C50.4939 29.6759 50.8888 30.0664 51.1824 30.6135C51.2477 30.7959 51.2881 30.9862 51.3025 31.1792Z" fill="#2F2A32"/>
</svg>
